# xmcd
#
# Track frame offsets: 
#        150
#        16244
#        31996
#        46963
#        60744
#
# Disc length: 1033 seconds
#
# Revision: 0
# Processed by: cddbd v1.5.2PL0 Copyright (c) Steve Scherf et al.
# Submitted via: ExactAudioCopy v0.95b2
#
DISCID=36040705
DTITLE=Hadden Sayers - Blue Country
DYEAR=2008
DGENRE=Country
TTITLE0=Why Oh Why
TTITLE1=Screamin'
TTITLE2=Don't Say Hello
TTITLE3=Tired of Lovin' You
TTITLE4=Beer Drinkin'
EXTD=
EXTT0=
EXTT1=
EXTT2=
EXTT3=
EXTT4=
PLAYORDER=
